<?xml version="1.0" encoding="UTF-8"?>
<svg xmlns="http://www.w3.org/2000/svg" xmlns:xlink="http://www.w3.org/1999/xlink" width="128px" height="128px" viewBox="0 0 128 128" version="1.1">
<defs>
<linearGradient id="linear0" gradientUnits="userSpaceOnUse" x1="384" y1="120" x2="416" y2="120" gradientTransform="matrix(-0.25,0,0,0.25,123.999994,53.000015)">
<stop offset="0" style="stop-color:rgb(87.058824%,86.666667%,85.490197%);stop-opacity:1;"/>
<stop offset="0.511049" style="stop-color:rgb(100%,100%,100%);stop-opacity:1;"/>
<stop offset="1" style="stop-color:rgb(75.294119%,74.901962%,73.725492%);stop-opacity:1;"/>
</linearGradient>
<filter id="alpha" filterUnits="objectBoundingBox" x="0%" y="0%" width="100%" height="100%">
  <feColorMatrix type="matrix" in="SourceGraphic" values="0 0 0 0 1 0 0 0 0 1 0 0 0 0 1 0 0 0 1 0"/>
</filter>
<mask id="mask0">
  <g filter="url(#alpha)">
<rect x="0" y="0" width="128" height="128" style="fill:rgb(0%,0%,0%);fill-opacity:0.187;stroke:none;"/>
  </g>
</mask>
<clipPath id="clip1">
  <rect x="0" y="0" width="192" height="152"/>
</clipPath>
<g id="surface97166" clip-path="url(#clip1)">
<path style=" stroke:none;fill-rule:nonzero;fill:rgb(100%,100%,100%);fill-opacity:1;" d="M 114 24 L 112 24 L 112 126 L 114 126 Z M 114 24 "/>
</g>
</defs>
<g id="surface97162">
<path style=" stroke:none;fill-rule:nonzero;fill:rgb(62.7451%,17.254902%,17.254902%);fill-opacity:1;" d="M 108 28 L 108 120 L 28 120 C 23.566406 120 20 116.433594 20 112 L 20 36 C 20 31.566406 23.566406 28 28 28 Z M 108 28 "/>
<path style=" stroke:none;fill-rule:nonzero;fill:url(#linear0);" d="M 106 48 L 106 118 L 28 118 C 23.566406 118 20 114.433594 20 110 L 20 56 C 20 51.566406 23.566406 48 28 48 Z M 106 48 "/>
<path style=" stroke:none;fill-rule:nonzero;fill:rgb(62.7451%,17.254902%,17.254902%);fill-opacity:1;" d="M 108 28 L 108 112 L 28 112 C 23.566406 112 20 108.433594 20 104 L 20 36 C 20 31.566406 23.566406 28 28 28 Z M 108 28 "/>
<path style=" stroke:none;fill-rule:nonzero;fill:rgb(93.333334%,25.098041%,20.784314%);fill-opacity:1;" d="M 108 8 L 108 110 L 28 110 C 23.566406 110 20 106.433594 20 102 L 20 16 C 20 11.566406 23.566406 8 28 8 Z M 108 8 "/>
<use xlink:href="#surface97166" transform="matrix(1,0,0,1,-8,-16)" mask="url(#mask0)"/>
<path style=" stroke:none;fill-rule:nonzero;fill:rgb(50.196081%,0%,0%);fill-opacity:1;" d="M 73.871094 118.058594 C 74.242188 118.054688 74.851562 118.054688 75.222656 118.058594 C 75.59375 118.058594 75.289062 118.0625 74.546875 118.0625 C 73.800781 118.0625 73.5 118.058594 73.871094 118.058594 Z M 73.871094 118.058594 "/>
<path style=" stroke:none;fill-rule:nonzero;fill:rgb(50.196081%,0%,0%);fill-opacity:1;" d="M 72.941406 118.054688 L 72.824219 118.054688 L 72.820312 118.027344 L 72.820312 118 L 74.191406 118 C 74.945312 118 75.5625 118 75.558594 118.003906 C 75.558594 118.003906 75.015625 118.007812 74.351562 118.007812 C 73.246094 118.011719 72.902344 118.015625 72.847656 118.023438 C 72.828125 118.027344 72.824219 118.03125 72.839844 118.035156 C 72.863281 118.042969 73.074219 118.046875 73.476562 118.050781 C 73.753906 118.050781 73.871094 118.054688 73.8125 118.054688 C 73.722656 118.058594 73.179688 118.058594 72.941406 118.054688 Z M 72.941406 118.054688 "/>
<path style=" stroke:none;fill-rule:nonzero;fill:rgb(50.196081%,0%,0%);fill-opacity:1;" d="M 73.722656 118.054688 C 73.761719 118.054688 73.820312 118.054688 73.851562 118.054688 C 73.894531 118.058594 73.875 118.058594 73.78125 118.058594 C 73.679688 118.058594 73.667969 118.058594 73.722656 118.054688 Z M 73.722656 118.054688 "/>
<path style=" stroke:none;fill-rule:nonzero;fill:rgb(50.196081%,0%,0%);fill-opacity:1;" d="M 71.6875 119.996094 L 72.820312 119.996094 L 72.824219 119.925781 L 72.824219 119.855469 L 72.824219 119.992188 L 74.191406 119.992188 C 75.101562 119.992188 75.558594 119.992188 75.558594 119.996094 C 75.558594 120 74.722656 120 73.058594 120 C 71.210938 120 70.851562 120 71.6875 119.996094 Z M 71.6875 119.996094 "/>
<path style=" stroke:none;fill-rule:nonzero;fill:rgb(50.196081%,0%,0%);fill-opacity:1;" d="M 72.824219 119.957031 C 72.824219 119.941406 72.824219 119.910156 72.824219 119.890625 C 72.828125 119.855469 72.828125 119.855469 72.828125 119.917969 C 72.828125 119.957031 72.828125 119.988281 72.828125 119.988281 C 72.828125 119.988281 72.828125 119.976562 72.824219 119.957031 Z M 72.824219 119.957031 "/>
<path style=" stroke:none;fill-rule:nonzero;fill:rgb(100%,100%,100%);fill-opacity:1;" d="M 79.234375 83.691406 C 79.101562 83.390625 78.992188 82.875 78.992188 82.554688 C 78.992188 82.230469 78.742188 81.597656 78.441406 81.152344 C 77.925781 80.390625 76.90625 80.335938 62.855469 80.335938 C 50.566406 80.335938 47.730469 80.222656 47.335938 79.710938 C 46.679688 78.867188 47.050781 78.390625 48.625 78.058594 C 50.746094 77.613281 68.097656 76.351562 73.617188 76.242188 C 76.527344 76.183594 79.007812 76 79.128906 75.828125 C 79.339844 75.53125 80.847656 68.84375 81.625 64.726562 C 81.839844 63.585938 82.199219 60.484375 82.421875 57.835938 C 82.890625 52.234375 83.101562 51.136719 83.71875 51.136719 C 84.226562 51.136719 86.632812 53.601562 87.140625 54.640625 C 87.410156 55.191406 87.4375 55.671875 87.285156 57.207031 C 86.867188 61.402344 83.933594 75.542969 82.644531 79.582031 C 81.503906 83.140625 79.863281 85.121094 79.234375 83.691406 Z M 79.234375 83.691406 "/>
<path style=" stroke:none;fill-rule:nonzero;fill:rgb(100%,100%,100%);fill-opacity:1;" d="M 51.996094 70.96875 C 51.582031 69.210938 51.347656 65.464844 51.203125 58.1875 C 51.070312 51.488281 51.007812 50.566406 50.605469 49.332031 C 50.359375 48.574219 50.15625 47.84375 50.15625 47.707031 C 50.15625 47.125 51.835938 47.519531 52.300781 48.207031 C 52.691406 48.792969 53.109375 48.902344 54.171875 48.703125 C 54.921875 48.566406 58.871094 47.792969 62.949219 46.992188 C 73.066406 45.003906 76.019531 45.292969 76.445312 48.320312 C 76.511719 48.796875 76.386719 50.195312 76.171875 51.425781 C 75.566406 54.84375 72.324219 69.882812 72.132812 70.152344 C 72.042969 70.28125 67.921875 70.503906 62.980469 70.644531 C 57.546875 70.796875 53.84375 71.082031 53.609375 71.363281 C 53 72.105469 52.21875 71.914062 51.996094 70.96875 Z M 59.417969 67.875 C 59.882812 67.59375 60.214844 65.675781 60.4375 62.011719 C 60.539062 60.296875 60.5 59.835938 60.234375 59.601562 C 60.050781 59.445312 58.789062 59.578125 57.433594 59.898438 C 54.34375 60.628906 54.105469 61.011719 54.316406 64.863281 C 54.394531 66.292969 54.566406 67.613281 54.695312 67.796875 C 54.96875 68.195312 58.789062 68.257812 59.417969 67.875 Z M 69.625 64.992188 C 70.320312 62.121094 71.492188 54.089844 71.625 51.273438 C 71.730469 48.976562 71.714844 48.871094 71.1875 48.574219 C 70.339844 48.09375 66.160156 48.628906 65.539062 49.296875 C 65.230469 49.632812 64.804688 50.746094 64.574219 51.8125 C 63.863281 55.140625 63.882812 55.171875 66.390625 55.347656 C 67.816406 55.449219 68.707031 55.710938 68.867188 56.078125 C 69.304688 57.070312 68.777344 57.632812 66.980469 58.089844 C 64.570312 58.703125 64.410156 58.820312 64.09375 60.222656 C 63.660156 62.132812 63.492188 65.175781 63.753906 66.289062 C 63.972656 67.207031 64.121094 67.25 66.558594 67.128906 L 69.132812 67 Z M 57.269531 57.375 C 60.273438 56.527344 60.378906 56.429688 60.246094 54.632812 C 60.1875 53.847656 60.042969 52.636719 59.925781 51.941406 C 59.714844 50.699219 59.675781 50.675781 58.027344 50.6875 C 56.019531 50.699219 54.828125 51.257812 54.476562 52.347656 C 54.136719 53.394531 54.132812 57.421875 54.46875 57.730469 C 54.847656 58.074219 54.765625 58.082031 57.269531 57.375 Z M 57.269531 57.375 "/>
<path style=" stroke:none;fill-rule:nonzero;fill:rgb(100%,100%,100%);fill-opacity:1;" d="M 42.742188 82.800781 L 42.015625 81.355469 L 42.046875 68.660156 C 42.082031 55.09375 42.007812 53.808594 41.046875 51.867188 C 39.679688 49.113281 41.84375 47.859375 44.46875 49.886719 C 45.789062 50.90625 45.789062 50.90625 45.925781 52.976562 C 46.117188 55.839844 46.105469 67.527344 45.90625 75.386719 C 45.707031 83.191406 45.511719 84.246094 44.269531 84.246094 C 43.660156 84.246094 43.292969 83.898438 42.742188 82.800781 Z M 42.742188 82.800781 "/>
<path style=" stroke:none;fill-rule:nonzero;fill:rgb(100%,100%,100%);fill-opacity:1;" d="M 49.234375 39.453125 C 48.027344 38.605469 47.539062 37.921875 47.921875 37.628906 C 48.089844 37.503906 50.375 37.304688 52.996094 37.183594 C 56.648438 37.019531 58.9375 36.640625 62.746094 35.5625 C 70.148438 33.46875 70.832031 33.382812 72.445312 34.351562 C 75.125 35.964844 75.824219 37.394531 74.570312 38.691406 C 73.753906 39.535156 73.019531 39.597656 61.121094 39.820312 C 52.59375 39.980469 49.867188 39.898438 49.234375 39.453125 Z M 49.234375 39.453125 "/>
<path style=" stroke:none;fill-rule:nonzero;fill:rgb(100%,100%,100%);fill-opacity:1;" d="M 79.285156 83.171875 C 78.898438 81.386719 78.359375 80.660156 77.273438 80.441406 C 76.6875 80.324219 70.539062 80.214844 63.613281 80.199219 C 49.800781 80.164062 47.550781 80.015625 47.378906 79.121094 C 47.308594 78.753906 47.589844 78.464844 48.167969 78.320312 C 49.980469 77.867188 62.664062 76.933594 76.742188 76.21875 C 77.863281 76.164062 78.945312 75.953125 79.144531 75.753906 C 79.792969 75.101562 81.90625 64.261719 82.472656 58.660156 C 83.101562 52.429688 83.300781 51.238281 83.714844 51.238281 C 83.875 51.238281 84.757812 52.070312 85.671875 53.085938 L 87.332031 54.933594 L 87.09375 57.359375 C 86.8125 60.214844 84.148438 73.5 83.042969 77.578125 C 82.238281 80.53125 80.667969 83.792969 79.933594 84.03125 C 79.695312 84.105469 79.40625 83.726562 79.285156 83.171875 Z M 79.285156 83.171875 "/>
</g>
</svg>
